<?xml version="1.0" encoding="UTF-8" standalone="no"?>
<!-- Created with Inkscape (http://www.inkscape.org/) -->

<svg
   width="240mm"
   height="120mm"
   viewBox="0 0 240 120"
   version="1.1"
   id="svg8"
   inkscape:version="1.2.1 (9c6d41e410, 2022-07-14)"
   sodipodi:docname="cat.svg"
   xmlns:inkscape="http://www.inkscape.org/namespaces/inkscape"
   xmlns:sodipodi="http://sodipodi.sourceforge.net/DTD/sodipodi-0.dtd"
   xmlns="http://www.w3.org/2000/svg"
   xmlns:svg="http://www.w3.org/2000/svg"
   xmlns:rdf="http://www.w3.org/1999/02/22-rdf-syntax-ns#"
   xmlns:cc="http://creativecommons.org/ns#"
   xmlns:dc="http://purl.org/dc/elements/1.1/">
  <defs
     id="defs2">
    <inkscape:path-effect
       effect="bspline"
       id="path-effect431"
       is_visible="true"
       lpeversion="1"
       weight="33.333333"
       steps="2"
       helper_size="0"
       apply_no_weight="true"
       apply_with_weight="true"
       only_selected="false" />
    <inkscape:path-effect
       effect="bspline"
       id="path-effect435"
       is_visible="true"
       lpeversion="1"
       weight="33.333333"
       steps="2"
       helper_size="0"
       apply_no_weight="true"
       apply_with_weight="true"
       only_selected="false" />
    <inkscape:path-effect
       effect="bspline"
       id="path-effect441"
       is_visible="true"
       lpeversion="1"
       weight="33.333333"
       steps="2"
       helper_size="0"
       apply_no_weight="true"
       apply_with_weight="true"
       only_selected="false" />
    <inkscape:path-effect
       effect="bspline"
       id="path-effect548"
       is_visible="true"
       lpeversion="1"
       weight="33.333333"
       steps="2"
       helper_size="0"
       apply_no_weight="true"
       apply_with_weight="true"
       only_selected="false" />
    <inkscape:path-effect
       effect="bspline"
       id="path-effect552"
       is_visible="true"
       lpeversion="1"
       weight="33.333333"
       steps="2"
       helper_size="0"
       apply_no_weight="true"
       apply_with_weight="true"
       only_selected="false" />
    <inkscape:path-effect
       effect="bspline"
       id="path-effect556"
       is_visible="true"
       lpeversion="1"
       weight="33.333333"
       steps="2"
       helper_size="0"
       apply_no_weight="true"
       apply_with_weight="true"
       only_selected="false" />
  </defs>
  <sodipodi:namedview
     id="base"
     pagecolor="#ffffff"
     bordercolor="#666666"
     borderopacity="1.0"
     inkscape:pageopacity="0.0"
     inkscape:pageshadow="2"
     inkscape:zoom="0.99437388"
     inkscape:cx="284.27627"
     inkscape:cy="182.72055"
     inkscape:document-units="mm"
     inkscape:current-layer="layer1"
     showgrid="false"
     showborder="true"
     width="200mm"
     showguides="true"
     inkscape:guide-bbox="true"
     inkscape:window-width="2520"
     inkscape:window-height="995"
     inkscape:window-x="20"
     inkscape:window-y="65"
     inkscape:window-maximized="1"
     inkscape:showpageshadow="0"
     inkscape:pagecheckerboard="0"
     inkscape:deskcolor="#d1d1d1">
    <inkscape:grid
       type="xygrid"
       id="grid815"
       units="mm"
       spacingx="10"
       spacingy="10"
       empspacing="4"
       dotted="false" />
  </sodipodi:namedview>
  <metadata
     id="metadata5">
    <rdf:RDF>
      <cc:Work
         rdf:about="">
        <dc:format>image/svg+xml</dc:format>
        <dc:type
           rdf:resource="http://purl.org/dc/dcmitype/StillImage" />
        <dc:title />
      </cc:Work>
    </rdf:RDF>
  </metadata>
  <g
     inkscape:label="Layer 1"
     inkscape:groupmode="layer"
     id="layer1"
     transform="translate(0,-177)">
    <g
       id="g2209"
       transform="translate(-398.35448,139.68581)">
      <path
         style="fill:#577c45;fill-opacity:0;stroke:#000000;stroke-width:0.322001;paint-order:stroke fill markers"
         d="m 438.96975,43.616968 c 0.67016,1.207493 2.22346,4.006249 3.06641,6.885627 0.84296,2.879379 1.40835,7.562106 2.1771,9.686645 0.76875,2.12454 2.93461,3.968831 4.56587,4.892188 1.63127,0.923356 3.21587,1.506918 5.8194,2.260319 2.60354,0.7534 6.46093,1.724893 10.69929,1.886172 4.23836,0.161279 9.54986,-0.402603 13.6319,-1.356929 4.08203,-0.954326 7.57217,-2.381991 11.73261,-2.97083 4.16043,-0.588839 10.02628,-0.291828 14.6709,0.303388 4.64463,0.595215 8.77572,1.534335 11.30168,2.316011 2.52596,0.781677 3.86347,1.44285 6.71127,1.846031 2.8478,0.403181 8.8264,0.21434 12.46741,0.137461 3.64101,-0.07688 8.48179,-0.102383 10.17621,0.535563 1.69442,0.637945 2.74332,1.56783 4.61478,2.236484 1.87146,0.668653 5.42444,1.079301 7.28451,-0.788935 1.86006,-1.868237 3.14198,-7.615448 3.848,-9.944058 0.70602,-2.328609 1.67383,-4.472686 3.03569,-5.804316 1.36185,-1.331631 3.87416,-2.361186 5.43695,-1.481236 1.5628,0.879949 2.30606,4.557972 3.44771,6.181867 1.14165,1.623894 2.69702,2.453055 5.39373,3.014259 2.6967,0.561205 6.7749,0.847091 9.86467,0.183152 3.08977,-0.663939 5.1099,-1.934741 6.41495,-2.677076 1.30505,-0.742335 4.01902,-1.751482 4.37824,-0.124476 0.35922,1.627007 0.63701,4.692083 0.27603,7.107345 -0.36099,2.415263 -1.06456,3.610681 -1.73275,5.824236 -0.66819,2.213554 -1.44994,6.865264 -2.34751,10.361191 -0.89756,3.495928 -2.21817,6.903284 -3.21897,8.599016 -1.0008,1.695731 -1.80295,2.380396 -3.46927,3.62087 -1.66631,1.240473 -3.6857,2.625755 -7.02611,3.940013 -3.34041,1.31426 -8.23225,2.44776 -10.99017,3.39372 -2.75792,0.94596 -4.46492,1.79422 -6.58371,2.92127 -2.11878,1.12705 -5.34638,2.96885 -7.2621,5.15229 -1.91572,2.18344 -3.94577,6.22202 -4.15669,10.11704 -0.21092,3.89502 1.24231,8.37772 2.4015,11.84767 1.15918,3.46996 2.48479,7.28351 3.43119,9.3756 0.9464,2.09209 1.57988,2.9567 2.12411,3.69951 0.54423,0.74281 -6.89103,2.8278 -9.43642,1.7413 -2.54539,-1.08649 -4.27042,-3.80592 -6.26185,-4.77375 -1.99144,-0.96783 -5.93112,-0.71721 -7.90228,-1.71392 -1.97116,-0.99671 -3.74376,-7.4058 -3.95403,-11.9599 -0.21027,-4.5541 0.52005,-10.15242 0.83232,-12.54614 0.31227,-2.39372 -7.35679,-5.02242 -11.10286,-6.14188 -3.74607,-1.11946 -8.57279,-2.40757 -11.82537,-3.07534 -3.25259,-0.66776 -7.73592,-1.13626 -8.97199,0.23098 -1.23606,1.36725 -2.52103,6.32119 -2.41014,9.74744 0.11089,3.42626 1.22008,7.20659 2.96523,9.4686 1.74516,2.26202 4.55532,3.59436 6.58641,5.24416 2.03108,1.6498 3.89641,4.55288 3.26547,6.10963 -0.63094,1.55675 -2.62652,2.54297 -5.58921,2.42846 -2.96268,-0.1145 -6.23254,-1.5309 -8.82679,-3.19327 -2.59426,-1.66237 -5.39609,-4.53618 -6.24335,-5.40519 -0.84725,-0.86902 -0.95876,-1.34097 -0.95876,-1.34097"
         id="path429"
         inkscape:path-effect="#path-effect431"
         inkscape:original-d="m 438.96975,43.616968 c 3.56541,-0.399368 3.80866,3.126466 3.48948,6.28737 -0.62542,3.603846 -1.35647,8.443104 1.38091,11.43711 0.41133,1.830246 3.14197,3.011286 4.64288,3.95354 2.07105,0.319663 3.40613,1.58077 5.19031,1.91144 3.44204,1.232953 7.1568,2.770804 10.80071,2.72018 5.12046,0.01192 10.51061,0.188884 15.09779,-1.60282 3.61663,-0.975134 6.39058,-4.15363 10.40848,-4.25766 4.90778,-1.045055 10.77294,-0.734396 15.92229,0.806209 4.2996,-0.06044 8.33049,1.319449 11.70433,2.660741 1.46409,0.949918 2.61565,1.987268 4.76678,2.35636 3.85338,0.927615 9.85155,1.358205 14.1835,-0.448001 2.89361,-0.733629 7.72741,-2.082684 9.67631,-0.05098 1.54249,1.182569 2.20616,2.546984 3.67308,3.25632 2.49424,0.94765 5.96756,2.04748 8.93658,1.03288 -0.0371,-4.272084 -0.61971,-10.43518 2.86209,-12.83156 1.36846,-1.349947 2.47638,-3.43078 2.56248,-5.67688 1.33732,-2.05729 3.97757,-2.774628 6.93729,-2.84294 0.72539,2.776317 -0.83747,6.920365 1.77064,8.76199 1.64479,1.307105 3.25489,2.033608 4.98642,2.65823 3.76015,0.630923 7.74594,2.234994 11.5247,0.807894 3.18702,-0.522269 4.85136,-2.358665 6.5377,-4.112654 0.4255,-0.727105 2.84559,-2.526594 3.73502,-1.38881 2.2132,3.233752 1.52366,6.3865 0.86956,9.59438 -0.34329,2.097039 -2.55612,2.404173 -2.5377,4.31173 -2.78489,2.635606 -1.82675,7.579716 -1.98931,11.837135 0.89162,3.59471 -1.34804,6.645865 -3.39021,8.747185 -1.15935,0.721185 -1.87623,1.505752 -2.99163,2.55347 -1.35463,2.677153 -3.32577,4.132773 -6.56784,4.505473 -4.47732,0.24178 -9.90311,-0.929047 -12.39565,2.87223 -2.37521,1.02769 -4.06623,1.90811 -6.24682,3.10426 -1.73141,1.64014 -5.17118,3.11012 -7.53425,4.29934 -4.42421,1.6062 -6.12771,5.80893 -5.35869,10.66056 -0.52546,4.84004 0.2916,9.52898 4.12419,12.72165 1.32502,2.81959 3.03774,6.49858 3.40162,9.78587 0.87049,1.11174 1.67974,1.84757 2.55602,3.48865 3.56282,5.62466 -7.27088,2.6712 -10.587,2.9688 -1.93897,-3.05685 -3.664,-5.77627 -4.99879,-7.88035 -2.64813,0.16874 -6.58781,0.41936 -9.92019,0.63106 -3.59528,-1.37973 -2.64391,-8.54221 -3.47569,-12.56686 0.36234,-5.1963 0.22425,-10.90791 2.02745,-15.54159 2.37687,-4.73362 -7.7523,-2.38585 -10.82437,-3.71024 -4.08335,-2.1072 -9.06681,-2.80798 -13.20212,-3.52327 -2.39539,-0.93916 -6.62042,-3.87956 -8.66626,-0.9056 -2.96383,2.34111 -0.89284,8.16553 -2.88012,11.10371 -0.28632,4.01193 -0.41397,8.15516 3.1482,10.72975 2.34696,1.5402 5.75445,1.61266 8.11546,3.84767 1.08788,2.09203 5.31751,3.47596 4.34889,6.76833 -2.09753,1.98982 -3.79977,3.56961 -6.99247,3.45569 -4.52738,1.1172 -7.23816,-1.58987 -10.04493,-4.35115 -2.55394,-1.14731 -6.6476,-2.76164 -6.3144,-6.4766 l -0.11151,-0.47195"
         sodipodi:nodetypes="cccccccccccccccccccccccccccccccccccccccccccccccccccc" />
      <path
         style="fill:#577c45;fill-opacity:0;stroke:#000000;stroke-width:0.322001;paint-order:stroke fill markers"
         d="m 439.31062,43.849401 c 0,0 -2.8202,1.477359 -3.12042,4.090658 -0.30021,2.613299 -0.0504,8.560315 0.76268,11.913644 0.81306,3.353329 2.13488,5.697366 3.0354,7.098683 0.90052,1.401318 1.93087,2.758907 2.65078,3.612963 0.71991,0.854056 1.84054,2.028363 3.11866,2.913387 1.27812,0.885025 3.83595,2.26729 6.89438,2.902051 3.05844,0.63476 8.45366,1.00666 12.1097,1.684697 3.65603,0.678036 8.98312,3.073548 9.21912,4.400687 0.236,1.327139 0.15879,7.481453 0.5235,8.339752 0.36471,0.858299 2.1344,3.545746 2.60148,4.794238 0.46708,1.248491 0.52844,0.934418 -1.02003,3.776472 -1.54847,2.842057 -3.91721,5.208257 -5.62294,7.268887 -1.70573,2.06063 -2.94544,4.31615 -2.97147,7.16816 -0.026,2.85201 1.1449,7.08656 2.137,9.65062 0.9921,2.56405 2.09706,4.48355 2.94311,5.99319 0.84605,1.50963 1.85603,3.35594 3.72354,4.00021 1.86751,0.64428 7.9731,0.36815 9.14516,0.31514 1.17206,-0.053 -0.57116,-2.77129 -1.51332,-4.45332 -0.94216,-1.68203 -1.96653,-3.68161 -3.13451,-6.0587 -1.16797,-2.37708 -2.26428,-4.68735 -2.88096,-6.00321 -0.61669,-1.31585 4.20926,0.52901 4.8706,1.32697 0.66135,0.79796 1.97534,2.5368 2.62714,3.74509 0.6518,1.20829 1.54132,3.58678 2.52166,5.11731 0.98034,1.53053 1.93091,2.52638 2.52287,3.14654 0.59196,0.62015 1.20808,1.25317 1.20808,1.25317"
         id="path433"
         inkscape:path-effect="#path-effect435"
         inkscape:original-d="m 439.31062,43.849401 c -0.53715,-1.553434 -4.23084,-1.215474 -3.62255,1.897666 0.42882,4.796759 -0.92671,10.811217 0.62529,14.88405 1.58842,2.499314 2.90091,4.848615 3.717,6.59149 0.82716,1.15484 1.21073,3.003296 2.62782,3.462446 0.97324,0.474354 1.58211,2.137036 2.58725,2.711162 1.14388,2.16392 4.2111,2.603582 6.14659,3.32165 4.25581,1.20738 9.68417,1.098588 14.78804,1.019361 2.10059,1.311362 8.55933,1.190327 8.06732,3.627755 -1.37999,2.411398 -3.42523,8.541022 -0.11517,9.180146 2.54803,-0.07352 3.45913,3.179308 3.60324,5.471882 5.35858,1.910228 2.58098,1.04154 -0.72989,3.736154 -2.97919,1.953947 -4.52911,5.139847 -7.37882,7.370937 -1.07553,1.46883 -3.9281,2.83787 -3.19324,5.80979 0.65342,3.83646 0.14619,8.53506 3.0975,11.2017 0.75817,2.08353 2.69367,3.52493 3.00853,5.22634 1.52005,1.25402 1.09038,3.88786 2.6661,4.87378 3.03597,1.61256 9.18239,2.23928 11.4067,-0.51588 4.89951,-1.7765 -0.46454,-3.53829 -2.54333,-3.96593 0.18638,-2.76732 -1.65493,-4.34839 -3.19325,-6.2333 -2.19109,-2.19089 -3.40715,-4.44433 -3.59986,-7.58607 0.97312,-2.4889 6.52705,-2.54836 5.00895,1.91482 0.36992,2.12916 1.16038,4.26362 3.2642,4.31961 1.65161,0.9428 0.23707,4.18297 2.0207,5.40317 2.40192,0.39315 3.01072,1.71524 3.47597,3.64154 l 0.61612,0.63302" />
      <path
         style="fill:#577c45;fill-opacity:0;stroke:#000000;stroke-width:0.322001;paint-order:stroke fill markers"
         d="m 439.31062,43.849401 c 0,0 -2.8202,1.477359 -3.12042,4.090658 -0.30021,2.613299 -0.0504,8.560315 0.76268,11.913644 0.81306,3.353329 2.13488,5.697366 3.0354,7.098683 0.90052,1.401318 1.93087,2.758907 2.65078,3.612963 0.71991,0.854056 1.84054,2.028363 3.11866,2.913387 1.27812,0.885025 3.83595,2.26729 6.89438,2.902051 3.05844,0.63476 8.45366,1.00666 12.1097,1.684697 3.65603,0.678036 8.98312,3.073548 9.21912,4.400687 0.236,1.327139 0.15879,7.481453 0.5235,8.339752 0.36471,0.858299 2.1344,3.545746 2.60148,4.794238 0.46708,1.248491 0.52844,0.934418 -1.02003,3.776472 -1.54847,2.842057 -3.91721,5.208257 -5.62294,7.268887 -1.70573,2.06063 -2.94544,4.31615 -2.97147,7.16816 -0.026,2.85201 1.1449,7.08656 2.137,9.65062 0.9921,2.56405 2.09706,4.48355 2.94311,5.99319 0.84605,1.50963 1.85603,3.35594 3.72354,4.00021 1.86751,0.64428 7.9731,0.36815 9.14516,0.31514 1.17206,-0.053 -0.57116,-2.77129 -1.51332,-4.45332 -0.94216,-1.68203 -1.96653,-3.68161 -3.13451,-6.0587 -1.16797,-2.37708 -2.26428,-4.68735 -2.88096,-6.00321 -0.61669,-1.31585 4.20926,0.52901 4.8706,1.32697 0.66135,0.79796 1.97534,2.5368 2.62714,3.74509 0.6518,1.20829 1.54132,3.58678 2.52166,5.11731 0.98034,1.53053 1.93091,2.52638 2.52287,3.14654 0.59196,0.62015 1.20808,1.25317 1.20808,1.25317"
         id="path437"
         inkscape:path-effect="#path-effect441"
         inkscape:original-d="m 439.31062,43.849401 c -0.53715,-1.553434 -4.23084,-1.215474 -3.62255,1.897666 0.42882,4.796759 -0.92671,10.811217 0.62529,14.88405 1.58842,2.499314 2.90091,4.848615 3.717,6.59149 0.82716,1.15484 1.21073,3.003296 2.62782,3.462446 0.97324,0.474354 1.58211,2.137036 2.58725,2.711162 1.14388,2.16392 4.2111,2.603582 6.14659,3.32165 4.25581,1.20738 9.68417,1.098588 14.78804,1.019361 2.10059,1.311362 8.55933,1.190327 8.06732,3.627755 -1.37999,2.411398 -3.42523,8.541022 -0.11517,9.180146 2.54803,-0.07352 3.45913,3.179308 3.60324,5.471882 5.35858,1.910228 2.58098,1.04154 -0.72989,3.736154 -2.97919,1.953947 -4.52911,5.139847 -7.37882,7.370937 -1.07553,1.46883 -3.9281,2.83787 -3.19324,5.80979 0.65342,3.83646 0.14619,8.53506 3.0975,11.2017 0.75817,2.08353 2.69367,3.52493 3.00853,5.22634 1.52005,1.25402 1.09038,3.88786 2.6661,4.87378 3.03597,1.61256 9.18239,2.23928 11.4067,-0.51588 4.89951,-1.7765 -0.46454,-3.53829 -2.54333,-3.96593 0.18638,-2.76732 -1.65493,-4.34839 -3.19325,-6.2333 -2.19109,-2.19089 -3.40715,-4.44433 -3.59986,-7.58607 0.97312,-2.4889 6.52705,-2.54836 5.00895,1.91482 0.36992,2.12916 1.16038,4.26362 3.2642,4.31961 1.65161,0.9428 0.23707,4.18297 2.0207,5.40317 2.40192,0.39315 3.01072,1.71524 3.47597,3.64154 l 0.61612,0.63302" />
      <path
         style="fill:#527c45;fill-opacity:0;stroke:#000000;stroke-width:0.322001;paint-order:stroke fill markers"
         d="m 438.96975,43.616968 c 0.67016,1.207493 2.22346,4.006249 3.06641,6.885627 0.84296,2.879379 1.40835,7.562106 2.1771,9.686645 0.76875,2.12454 2.93461,3.968831 4.56587,4.892188 1.63127,0.923356 3.21587,1.506918 5.8194,2.260319 2.60354,0.7534 6.46093,1.724893 10.69929,1.886172 4.23836,0.161279 9.54986,-0.402603 13.6319,-1.356929 4.08203,-0.954326 7.57217,-2.381991 11.73261,-2.97083 4.16043,-0.588839 10.02628,-0.291828 14.6709,0.303388 4.64463,0.595215 8.77572,1.534335 11.30168,2.316011 2.52596,0.781677 3.86347,1.44285 6.71127,1.846031 2.8478,0.403181 8.8264,0.21434 12.46741,0.137461 3.64101,-0.07688 8.48179,-0.102383 10.17621,0.535563 1.69442,0.637945 2.74332,1.56783 4.61478,2.236484 1.87146,0.668653 5.42444,1.079301 7.28451,-0.788935 1.86006,-1.868237 3.14198,-7.615448 3.848,-9.944058 0.70602,-2.328609 1.67383,-4.472686 3.03569,-5.804316 1.36185,-1.331631 3.87416,-2.361186 5.43695,-1.481236 1.5628,0.879949 2.30606,4.557972 3.44771,6.181867 1.14165,1.623894 2.69702,2.453055 5.39373,3.014259 2.6967,0.561205 6.7749,0.847091 9.86467,0.183152 3.08977,-0.663939 5.1099,-1.934741 6.41495,-2.677076 1.30505,-0.742335 4.01902,-1.751482 4.37824,-0.124476 0.35922,1.627007 0.63701,4.692083 0.27603,7.107345 -0.36099,2.415263 -1.06456,3.610681 -1.73275,5.824236 -0.66819,2.213554 -1.44994,6.865264 -2.34751,10.361191 -0.89756,3.495928 -2.21817,6.903284 -3.21897,8.599016 -1.0008,1.695731 -1.80295,2.380396 -3.46927,3.62087 -1.66631,1.240473 -3.6857,2.625755 -7.02611,3.940013 -3.34041,1.31426 -8.23225,2.44776 -10.99017,3.39372 -2.75792,0.94596 -4.46492,1.79422 -6.58371,2.92127 -2.11878,1.12705 -5.34638,2.96885 -7.2621,5.15229 -1.91572,2.18344 -3.94577,6.22202 -4.15669,10.11704 -0.21092,3.89502 1.24231,8.37772 2.4015,11.84767 1.15918,3.46996 2.48479,7.28351 3.43119,9.3756 0.9464,2.09209 1.57988,2.9567 2.12411,3.69951 0.54423,0.74281 -6.89103,2.8278 -9.26266,1.44063 -2.37163,-1.38718 -3.78747,-4.64152 -5.7789,-5.60937 -1.99142,-0.96785 -6.28692,-0.10162 -8.40854,-0.83798 -2.12161,-0.73636 -3.89421,-7.14545 -4.10448,-11.69955 -0.21027,-4.5541 0.52005,-10.15242 0.83232,-12.54614 0.31227,-2.39372 -7.35679,-5.02242 -11.10286,-6.14188 -3.74607,-1.11946 -8.57279,-2.40757 -11.82537,-3.07534 -3.25259,-0.66776 -7.73592,-1.13626 -8.97199,0.23098 -1.23606,1.36725 -2.52103,6.32119 -2.41014,9.74744 0.11089,3.42626 1.22008,7.20659 2.96523,9.4686 1.74516,2.26202 4.55532,3.59436 6.58641,5.24416 2.03108,1.6498 3.89641,4.55288 3.26547,6.10963 -0.63094,1.55675 -2.62652,2.54297 -5.58921,2.42846 -2.96268,-0.1145 -6.23254,-1.5309 -8.82679,-3.19327 -2.59426,-1.66237 -5.39609,-4.53618 -6.24335,-5.40519 -0.84725,-0.86902 -0.95876,-1.34097 -0.95876,-1.34097"
         id="path540"
         inkscape:path-effect="#path-effect548"
         inkscape:original-d="m 438.96975,43.616968 c 3.56541,-0.399368 3.80866,3.126466 3.48948,6.28737 -0.62542,3.603846 -1.35647,8.443104 1.38091,11.43711 0.41133,1.830246 3.14197,3.011286 4.64288,3.95354 2.07105,0.319663 3.40613,1.58077 5.19031,1.91144 3.44204,1.232953 7.1568,2.770804 10.80071,2.72018 5.12046,0.01192 10.51061,0.188884 15.09779,-1.60282 3.61663,-0.975134 6.39058,-4.15363 10.40848,-4.25766 4.90778,-1.045055 10.77294,-0.734396 15.92229,0.806209 4.2996,-0.06044 8.33049,1.319449 11.70433,2.660741 1.46409,0.949918 2.61565,1.987268 4.76678,2.35636 3.85338,0.927615 9.85155,1.358205 14.1835,-0.448001 2.89361,-0.733629 7.72741,-2.082684 9.67631,-0.05098 1.54249,1.182569 2.20616,2.546984 3.67308,3.25632 2.49424,0.94765 5.96756,2.04748 8.93658,1.03288 -0.0371,-4.272084 -0.61971,-10.43518 2.86209,-12.83156 1.36846,-1.349947 2.47638,-3.43078 2.56248,-5.67688 1.33732,-2.05729 3.97757,-2.774628 6.93729,-2.84294 0.72539,2.776317 -0.83747,6.920365 1.77064,8.76199 1.64479,1.307105 3.25489,2.033608 4.98642,2.65823 3.76015,0.630923 7.74594,2.234994 11.5247,0.807894 3.18702,-0.522269 4.85136,-2.358665 6.5377,-4.112654 0.4255,-0.727105 2.84559,-2.526594 3.73502,-1.38881 2.2132,3.233752 1.52366,6.3865 0.86956,9.59438 -0.34329,2.097039 -2.55612,2.404173 -2.5377,4.31173 -2.78489,2.635606 -1.82675,7.579716 -1.98931,11.837135 0.89162,3.59471 -1.34804,6.645865 -3.39021,8.747185 -1.15935,0.721185 -1.87623,1.505752 -2.99163,2.55347 -1.35463,2.677153 -3.32577,4.132773 -6.56784,4.505473 -4.47732,0.24178 -9.90311,-0.929047 -12.39565,2.87223 -2.37521,1.02769 -4.06623,1.90811 -6.24682,3.10426 -1.73141,1.64014 -5.17118,3.11012 -7.53425,4.29934 -4.42421,1.6062 -6.12771,5.80893 -5.35869,10.66056 -0.52546,4.84004 0.2916,9.52898 4.12419,12.72165 1.32502,2.81959 3.03774,6.49858 3.40162,9.78587 0.87049,1.11174 1.67974,1.84757 2.55602,3.48865 3.56282,5.62466 -7.27088,2.6712 -10.587,2.9688 -1.5914,-3.65821 -3.00724,-6.91255 -4.10284,-9.43047 -2.88731,0.58257 -7.18281,1.4488 -10.81614,2.18118 -3.59528,-1.37973 -2.64391,-8.54221 -3.47569,-12.56686 0.36234,-5.1963 0.22425,-10.90791 2.02745,-15.54159 2.37687,-4.73362 -7.7523,-2.38585 -10.82437,-3.71024 -4.08335,-2.1072 -9.06681,-2.80798 -13.20212,-3.52327 -2.39539,-0.93916 -6.62042,-3.87956 -8.66626,-0.9056 -2.96383,2.34111 -0.89284,8.16553 -2.88012,11.10371 -0.28632,4.01193 -0.41397,8.15516 3.1482,10.72975 2.34696,1.5402 5.75445,1.61266 8.11546,3.84767 1.08788,2.09203 5.31751,3.47596 4.34889,6.76833 -2.09753,1.98982 -3.79977,3.56961 -6.99247,3.45569 -4.52738,1.1172 -7.23816,-1.58987 -10.04493,-4.35115 -2.55394,-1.14731 -6.6476,-2.76164 -6.3144,-6.4766 l -0.11151,-0.47195"
         sodipodi:nodetypes="cccccccccccccccccccccccccccccccccccccccccccccccccccc" />
      <path
         style="fill:#577c45;fill-opacity:0;stroke:#000000;stroke-width:0.322001;paint-order:stroke fill markers"
         d="m 439.31062,43.849401 c 0,0 -2.8202,1.477359 -3.12042,4.090658 -0.30021,2.613299 -0.0504,8.560315 0.76268,11.913644 0.81306,3.353329 2.13488,5.697366 3.0354,7.098683 0.90052,1.401318 1.93087,2.758907 2.65078,3.612963 0.71991,0.854056 1.84054,2.028363 3.11866,2.913387 1.27812,0.885025 3.83595,2.26729 6.89438,2.902051 3.05844,0.63476 8.45366,1.00666 12.1097,1.684697 3.65603,0.678036 8.98312,3.073548 9.21912,4.400687 0.236,1.327139 0.15879,7.481453 0.5235,8.339752 0.36471,0.858299 2.1344,3.545746 2.60148,4.794238 0.46708,1.248491 0.52844,0.934418 -1.02003,3.776472 -1.54847,2.842057 -3.91721,5.208257 -5.62294,7.268887 -1.70573,2.06063 -2.94544,4.31615 -2.97147,7.16816 -0.026,2.85201 1.1449,7.08656 2.137,9.65062 0.9921,2.56405 2.09706,4.48355 2.94311,5.99319 0.84605,1.50963 1.85603,3.35594 3.72354,4.00021 1.86751,0.64428 7.9731,0.36815 9.14516,0.31514 1.17206,-0.053 -0.57116,-2.77129 -1.51332,-4.45332 -0.94216,-1.68203 -1.96653,-3.68161 -3.13451,-6.0587 -1.16797,-2.37708 -2.26428,-4.68735 -2.88096,-6.00321 -0.61669,-1.31585 4.20926,0.52901 4.8706,1.32697 0.66135,0.79796 1.97534,2.5368 2.62714,3.74509 0.6518,1.20829 1.54132,3.58678 2.52166,5.11731 0.98034,1.53053 1.93091,2.52638 2.52287,3.14654 0.59196,0.62015 1.20808,1.25317 1.20808,1.25317"
         id="path542"
         inkscape:path-effect="#path-effect552"
         inkscape:original-d="m 439.31062,43.849401 c -0.53715,-1.553434 -4.23084,-1.215474 -3.62255,1.897666 0.42882,4.796759 -0.92671,10.811217 0.62529,14.88405 1.58842,2.499314 2.90091,4.848615 3.717,6.59149 0.82716,1.15484 1.21073,3.003296 2.62782,3.462446 0.97324,0.474354 1.58211,2.137036 2.58725,2.711162 1.14388,2.16392 4.2111,2.603582 6.14659,3.32165 4.25581,1.20738 9.68417,1.098588 14.78804,1.019361 2.10059,1.311362 8.55933,1.190327 8.06732,3.627755 -1.37999,2.411398 -3.42523,8.541022 -0.11517,9.180146 2.54803,-0.07352 3.45913,3.179308 3.60324,5.471882 5.35858,1.910228 2.58098,1.04154 -0.72989,3.736154 -2.97919,1.953947 -4.52911,5.139847 -7.37882,7.370937 -1.07553,1.46883 -3.9281,2.83787 -3.19324,5.80979 0.65342,3.83646 0.14619,8.53506 3.0975,11.2017 0.75817,2.08353 2.69367,3.52493 3.00853,5.22634 1.52005,1.25402 1.09038,3.88786 2.6661,4.87378 3.03597,1.61256 9.18239,2.23928 11.4067,-0.51588 4.89951,-1.7765 -0.46454,-3.53829 -2.54333,-3.96593 0.18638,-2.76732 -1.65493,-4.34839 -3.19325,-6.2333 -2.19109,-2.19089 -3.40715,-4.44433 -3.59986,-7.58607 0.97312,-2.4889 6.52705,-2.54836 5.00895,1.91482 0.36992,2.12916 1.16038,4.26362 3.2642,4.31961 1.65161,0.9428 0.23707,4.18297 2.0207,5.40317 2.40192,0.39315 3.01072,1.71524 3.47597,3.64154 l 0.61612,0.63302" />
      <path
         style="fill:#577c45;fill-opacity:0;stroke:#000000;stroke-width:0.322001;paint-order:stroke fill markers"
         d="m 439.31062,43.849401 c 0,0 -2.8202,1.477359 -3.12042,4.090658 -0.30021,2.613299 -0.0504,8.560315 0.76268,11.913644 0.81306,3.353329 2.13488,5.697366 3.0354,7.098683 0.90052,1.401318 1.93087,2.758907 2.65078,3.612963 0.71991,0.854056 1.84054,2.028363 3.11866,2.913387 1.27812,0.885025 3.83595,2.26729 6.89438,2.902051 3.05844,0.63476 8.45366,1.00666 12.1097,1.684697 3.65603,0.678036 8.98312,3.073548 9.21912,4.400687 0.236,1.327139 0.15879,7.481453 0.5235,8.339752 0.36471,0.858299 2.1344,3.545746 2.60148,4.794238 0.46708,1.248491 0.52844,0.934418 -1.02003,3.776472 -1.54847,2.842057 -3.91721,5.208257 -5.62294,7.268887 -1.70573,2.06063 -2.94544,4.31615 -2.97147,7.16816 -0.026,2.85201 1.1449,7.08656 2.137,9.65062 0.9921,2.56405 2.09706,4.48355 2.94311,5.99319 0.84605,1.50963 1.85603,3.35594 3.72354,4.00021 1.86751,0.64428 7.9731,0.36815 9.14516,0.31514 1.17206,-0.053 -0.57116,-2.77129 -1.51332,-4.45332 -0.94216,-1.68203 -1.96653,-3.68161 -3.13451,-6.0587 -1.16797,-2.37708 -2.26428,-4.68735 -2.88096,-6.00321 -0.61669,-1.31585 4.20926,0.52901 4.8706,1.32697 0.66135,0.79796 1.97534,2.5368 2.62714,3.74509 0.6518,1.20829 1.54132,3.58678 2.52166,5.11731 0.98034,1.53053 1.93091,2.52638 2.52287,3.14654 0.59196,0.62015 1.20808,1.25317 1.20808,1.25317"
         id="path544"
         inkscape:path-effect="#path-effect556"
         inkscape:original-d="m 439.31062,43.849401 c -0.53715,-1.553434 -4.23084,-1.215474 -3.62255,1.897666 0.42882,4.796759 -0.92671,10.811217 0.62529,14.88405 1.58842,2.499314 2.90091,4.848615 3.717,6.59149 0.82716,1.15484 1.21073,3.003296 2.62782,3.462446 0.97324,0.474354 1.58211,2.137036 2.58725,2.711162 1.14388,2.16392 4.2111,2.603582 6.14659,3.32165 4.25581,1.20738 9.68417,1.098588 14.78804,1.019361 2.10059,1.311362 8.55933,1.190327 8.06732,3.627755 -1.37999,2.411398 -3.42523,8.541022 -0.11517,9.180146 2.54803,-0.07352 3.45913,3.179308 3.60324,5.471882 5.35858,1.910228 2.58098,1.04154 -0.72989,3.736154 -2.97919,1.953947 -4.52911,5.139847 -7.37882,7.370937 -1.07553,1.46883 -3.9281,2.83787 -3.19324,5.80979 0.65342,3.83646 0.14619,8.53506 3.0975,11.2017 0.75817,2.08353 2.69367,3.52493 3.00853,5.22634 1.52005,1.25402 1.09038,3.88786 2.6661,4.87378 3.03597,1.61256 9.18239,2.23928 11.4067,-0.51588 4.89951,-1.7765 -0.46454,-3.53829 -2.54333,-3.96593 0.18638,-2.76732 -1.65493,-4.34839 -3.19325,-6.2333 -2.19109,-2.19089 -3.40715,-4.44433 -3.59986,-7.58607 0.97312,-2.4889 6.52705,-2.54836 5.00895,1.91482 0.36992,2.12916 1.16038,4.26362 3.2642,4.31961 1.65161,0.9428 0.23707,4.18297 2.0207,5.40317 2.40192,0.39315 3.01072,1.71524 3.47597,3.64154 l 0.61612,0.63302" />
    </g>
  </g>
</svg>
